<svg xmlns="http://www.w3.org/2000/svg" width="20" height="20" viewBox="0 0 20 20">
  <path fill="#FFF" fill-opacity=".5" fill-rule="evenodd" d="M10.6562 19.9658C10.7564 19.9522 10.8932 19.9278 10.96 19.9111C11.0269 19.8944 11.1119 19.8747 11.1499 19.8671C11.1879 19.861 11.2593 19.8397 11.3095 19.823C11.3596 19.8048 11.469 19.7668 11.5525 19.7395C11.6908 19.6924 11.8822 19.6134 11.9399 19.5799C11.9521 19.5723 12.0478 19.5237 12.1496 19.4705C12.42 19.3338 12.8409 19.0421 13.087 18.8218C13.2131 18.7079 13.444 18.48 13.5093 18.404C13.5397 18.3691 13.6066 18.2931 13.6567 18.2339C13.7068 18.1761 13.7479 18.123 13.7479 18.1154C13.7479 18.1078 13.7676 18.0835 13.7919 18.0592C13.8162 18.0349 13.8755 17.9543 13.9241 17.8814C13.9727 17.8085 14.0168 17.7447 14.0213 17.7401C14.0441 17.7204 14.1474 17.5502 14.2112 17.4287C14.2507 17.3542 14.2917 17.2813 14.3024 17.2691C14.3328 17.2357 14.4771 16.9288 14.4771 16.9C14.4771 16.8878 14.4862 16.8665 14.4984 16.8559C14.5333 16.8194 14.6366 16.5688 14.705 16.35C14.7232 16.2923 14.743 16.2406 14.749 16.2361C14.7627 16.2269 14.8599 15.8957 14.8964 15.7362C14.9465 15.5174 14.9952 15.2987 15.0028 15.2485C15.0073 15.2197 15.0164 15.1817 15.024 15.165C15.0316 15.1483 15.0514 15.0222 15.0696 14.8839C15.0863 14.7457 15.1076 14.5877 15.1152 14.533C15.1547 14.2656 15.176 13.6867 15.1729 13C15.1699 12.3255 15.1714 12.286 15.2033 12.1265C15.2367 11.9593 15.2732 11.8196 15.299 11.7618C15.3066 11.7451 15.3294 11.6798 15.3492 11.6175C15.4175 11.4079 15.4677 11.2757 15.4813 11.2681C15.4889 11.262 15.5102 11.2286 15.5299 11.1921C15.6241 11.0113 15.7183 10.8579 15.7366 10.8579C15.7426 10.8579 15.7563 10.8427 15.7654 10.8245C15.8034 10.7424 16.1741 10.3732 16.2182 10.3717C16.2273 10.3717 16.247 10.3581 16.2622 10.3413C16.285 10.317 16.5296 10.1894 16.6724 10.1286C16.8426 10.0557 17.0963 10.0086 17.3211 10.0071C17.3941 10.0071 17.4564 10.001 17.4624 9.99343C17.47 9.97824 17.4351 9.83087 17.3789 9.64704C17.2801 9.32648 17.1009 8.98313 16.917 8.76891C16.7712 8.59876 16.5539 8.3967 16.4673 8.35112C16.4461 8.34048 16.4263 8.32681 16.4217 8.32225C16.4172 8.31769 16.3807 8.29339 16.3382 8.2706C16.0024 8.08373 15.5801 7.9865 15.2291 8.01688C15.0863 8.02904 15.0802 8.03055 14.8721 8.08069C14.7369 8.11259 14.7293 8.11563 14.6062 8.16577C14.5652 8.18248 14.5196 8.20071 14.5075 8.20527C14.4953 8.21135 14.4513 8.23565 14.4087 8.25996C14.3677 8.28427 14.313 8.31466 14.2872 8.32681C14.2629 8.33896 14.1945 8.38302 14.1383 8.42556C14.0821 8.4681 14.032 8.50304 14.0274 8.50304C14.0183 8.50304 13.9773 8.53951 13.8314 8.6808C13.7737 8.73701 13.7205 8.78411 13.7144 8.78411C13.7084 8.78411 13.6916 8.7993 13.6795 8.81905C13.6658 8.83728 13.6491 8.84943 13.6415 8.84488C13.6354 8.84032 13.6294 7.4821 13.6278 5.8246C13.6278 3.85412 13.6218 2.76633 13.6126 2.6767C13.5899 2.48375 13.5625 2.38804 13.4759 2.21333C13.4045 2.06596 13.3923 2.04925 13.2936 1.93074C13.1402 1.74691 12.8788 1.57676 12.6616 1.52206C12.6039 1.50687 12.5476 1.48864 12.5385 1.48104C12.5294 1.47497 12.4291 1.46433 12.3152 1.45826C12.1025 1.44914 11.8928 1.47345 11.7774 1.52358C11.7516 1.53574 11.7242 1.54485 11.7166 1.54485C11.7105 1.54485 11.6786 1.55853 11.6467 1.57524C11.6163 1.59195 11.586 1.60714 11.5799 1.60714C11.5723 1.60866 11.5434 1.62537 11.5145 1.64361C11.4857 1.66184 11.4371 1.68918 11.4082 1.70438C11.3793 1.71957 11.3505 1.7378 11.3459 1.7454C11.3414 1.75299 11.3322 1.6512 11.3277 1.51903C11.3125 1.10275 11.2578 0.909805 11.0876 0.656089C10.9463 0.447951 10.7428 0.283872 10.5073 0.192716C10.4389 0.16537 10.369 0.138023 10.3523 0.131946C10.2369 0.0848493 9.93149 0.0726954 9.73702 0.107638C9.58358 0.136504 9.36936 0.221582 9.27213 0.294507C9.2463 0.314257 9.21895 0.329449 9.20984 0.329449C9.17642 0.329449 8.90447 0.631781 8.86649 0.710783C8.8437 0.75636 8.81939 0.803457 8.81331 0.815611C8.79964 0.8384 8.78901 0.865747 8.73279 1.02375C8.69329 1.13921 8.67506 1.2957 8.67202 1.54941C8.67202 1.67247 8.66443 1.77274 8.65683 1.77274C8.64923 1.77274 8.64316 1.76515 8.64316 1.75755C8.64316 1.74843 8.631 1.73628 8.61733 1.73172C8.60214 1.72565 8.5596 1.69982 8.52162 1.67399C8.26182 1.4932 7.84251 1.41268 7.50372 1.47801C7.32596 1.51295 7.2029 1.55549 7.08896 1.62082C7.03123 1.65424 6.98109 1.68159 6.97805 1.68159C6.9735 1.68159 6.92336 1.71957 6.86563 1.76515C6.76992 1.84111 6.63166 1.99911 6.58001 2.08875C6.48582 2.25587 6.41897 2.44273 6.39466 2.60833C6.38706 2.65391 6.38099 3.99541 6.38099 5.58759C6.37947 8.37087 6.37491 8.85855 6.34756 8.84943C6.33997 8.84639 6.27768 8.79018 6.20931 8.72334C6.13942 8.65649 6.06346 8.58812 6.03915 8.57141C6.01485 8.5547 5.98446 8.53039 5.97079 8.51824C5.91913 8.46962 5.77632 8.36783 5.6958 8.32377C5.44664 8.18856 5.30687 8.12779 5.15647 8.09284C5.08202 8.07461 5.0091 8.05638 4.99694 8.05182C4.98479 8.04575 4.96808 8.04423 4.962 8.04575C4.95441 8.04727 4.90731 8.04119 4.85565 8.03207C4.5123 7.97738 4.12489 8.03815 3.79673 8.19767C3.48832 8.3496 3.35767 8.44987 3.10395 8.73397C3.04166 8.80386 2.99153 8.86463 2.99153 8.8707C2.99153 8.87678 2.96114 8.92692 2.92316 8.98161C2.85631 9.08036 2.71806 9.34927 2.71806 9.38269C2.71806 9.39637 2.67552 9.50119 2.63906 9.57108C2.63298 9.58627 2.60564 9.67743 2.57981 9.77466C2.5555 9.87189 2.53119 9.95545 2.52816 9.96001C2.5236 9.96305 2.52816 9.9752 2.53727 9.98736C2.54942 9.99951 2.59044 10.0071 2.65577 10.0071C2.82745 10.0071 3.16168 10.0557 3.19663 10.0861C3.20422 10.0922 3.22853 10.0983 3.2498 10.0983C3.27107 10.0983 3.29538 10.1043 3.30298 10.1104C3.31209 10.118 3.34248 10.1332 3.37134 10.1438C3.81345 10.3094 4.25555 10.7272 4.4804 11.1921C4.49863 11.2301 4.53053 11.2954 4.5518 11.3365C4.58978 11.4094 4.64752 11.5674 4.67942 11.6783C4.68702 11.7072 4.70069 11.7451 4.70829 11.7618C4.725 11.7983 4.79185 12.1417 4.81463 12.3057C4.82375 12.3741 4.82983 12.7326 4.82983 13.1413C4.82983 13.7733 4.8359 13.986 4.86781 14.3598C4.89364 14.6697 4.93617 14.969 4.99998 15.2637C5.0167 15.3427 5.03645 15.4354 5.04404 15.4688C5.0805 15.6511 5.08962 15.6876 5.10937 15.7575C5.18229 16.0036 5.21876 16.1191 5.25066 16.2163C5.26889 16.2756 5.2856 16.3348 5.2856 16.3485C5.2856 16.3622 5.2932 16.3728 5.3008 16.3728C5.30991 16.3728 5.31599 16.3819 5.31599 16.3941C5.31599 16.4123 5.35093 16.5065 5.39955 16.6235C5.41018 16.6493 5.43449 16.707 5.45272 16.7526C5.49222 16.8514 5.72923 17.3345 5.7429 17.3451C5.74898 17.3497 5.77328 17.3876 5.79607 17.4302C5.83254 17.4955 5.91306 17.6292 6.00421 17.7766C6.01485 17.7933 6.03308 17.8176 6.04523 17.8328C6.05739 17.848 6.09841 17.9012 6.13639 17.9528C6.23058 18.0804 6.40378 18.2962 6.4767 18.3782C6.69091 18.6167 7.18011 19.0619 7.22873 19.0619C7.23785 19.0619 7.24544 19.0679 7.24544 19.074C7.24544 19.0816 7.27735 19.109 7.31837 19.1378C7.35787 19.1652 7.42168 19.2108 7.46118 19.2396C7.50068 19.267 7.54018 19.2898 7.54625 19.2898C7.55385 19.2898 7.57512 19.3034 7.59487 19.3201C7.61462 19.3369 7.63893 19.3505 7.65108 19.3505C7.66172 19.3505 7.67083 19.3581 7.67083 19.3657C7.67083 19.3748 7.67843 19.3809 7.68907 19.3809C7.69818 19.3809 7.71793 19.39 7.73009 19.4022C7.76959 19.4356 8.15548 19.624 8.30892 19.6863C8.43654 19.7364 8.78597 19.8488 8.94701 19.8914C9.06855 19.9233 9.32986 19.9643 9.59269 19.9947C9.73702 20.0099 10.4799 19.9901 10.6562 19.9658Z"/>
</svg>
