<?xml version="1.0" standalone="no"?>
<!DOCTYPE svg PUBLIC "-//W3C//DTD SVG 20010904//EN"
 "http://www.w3.org/TR/2001/REC-SVG-20010904/DTD/svg10.dtd">
<svg version="1.0" xmlns="http://www.w3.org/2000/svg"
 width="700.000000pt" height="700.000000pt" viewBox="0 0 700.000000 700.000000"
 preserveAspectRatio="xMidYMid meet">
<metadata>
Created by potrace 1.14, written by Peter Selinger 2001-2017
</metadata>
<g transform="translate(0.000000,700.000000) scale(0.100000,-0.100000)"
fill="#000000" stroke="none">
<path d="M3368 6405 c-105 -39 -178 -108 -225 -212 -21 -45 -27 -77 -31 -155
-3 -54 -8 -98 -12 -98 -4 0 -28 12 -54 26 -127 71 -298 70 -422 -2 -62 -37
-136 -122 -165 -190 l-24 -59 -2 -915 c-2 -503 -5 -926 -8 -939 -6 -24 -7 -24
-48 16 -98 92 -213 159 -323 187 -79 20 -213 20 -288 1 -146 -38 -284 -145
-367 -285 -36 -61 -115 -267 -106 -276 1 -2 41 -8 88 -13 158 -18 261 -70 377
-189 46 -47 75 -91 112 -166 84 -169 91 -211 101 -581 8 -336 22 -483 64 -665
93 -406 250 -697 513 -951 222 -215 487 -347 769 -384 127 -17 381 -7 485 19
334 82 644 296 850 586 79 111 203 355 247 487 88 260 120 490 130 923 l7 325
38 108 c104 300 292 464 569 492 37 4 57 11 57 20 0 31 -45 156 -83 230 -30
59 -62 102 -121 161 -122 122 -246 174 -414 174 -166 0 -302 -58 -445 -188
-26 -24 -52 -40 -57 -37 -7 4 -10 323 -10 903 0 979 1 957 -57 1064 -102 188
-374 256 -569 142 -22 -13 -44 -21 -47 -17 -4 3 -7 34 -7 68 0 168 -84 306
-228 373 -48 23 -73 27 -157 29 -67 2 -112 -2 -137 -12z"/>
</g>
</svg>
