<?xml version="1.0" standalone="no"?>
<!DOCTYPE svg PUBLIC "-//W3C//DTD SVG 20010904//EN"
 "http://www.w3.org/TR/2001/REC-SVG-20010904/DTD/svg10.dtd">
<svg version="1.0" xmlns="http://www.w3.org/2000/svg"
 width="700.000000pt" height="700.000000pt" viewBox="0 0 700.000000 700.000000"
 preserveAspectRatio="xMidYMid meet">
<metadata>
Created by potrace 1.14, written by Peter Selinger 2001-2017
</metadata>
<g transform="translate(0.000000,700.000000) scale(0.100000,-0.100000)"
fill="#000000" stroke="none">
<path d="M0 3500 l0 -3500 3500 0 3500 0 0 3500 0 3500 -3500 0 -3500 0 0
-3500z m3646 2898 c122 -47 227 -184 239 -313 3 -33 8 -78 11 -101 l5 -40 70
35 c62 31 82 36 164 39 70 3 106 0 146 -13 116 -37 199 -111 251 -220 l33 -70
5 -927 c3 -509 8 -929 11 -932 3 -4 33 18 66 47 116 104 224 156 371 178 104
16 215 -5 328 -60 156 -78 289 -251 343 -448 22 -82 22 -83 -58 -83 -128 0
-269 -68 -377 -183 -86 -92 -140 -185 -185 -322 l-32 -100 -8 -335 c-9 -424
-35 -611 -121 -879 -163 -512 -527 -908 -973 -1059 -128 -43 -220 -60 -380
-68 -491 -23 -953 227 -1249 676 -45 68 -137 247 -166 320 -11 30 -25 64 -30
75 -17 38 -69 230 -89 330 -35 175 -42 263 -51 595 -9 353 -16 403 -71 535
-104 251 -316 414 -537 415 -26 0 -52 4 -59 8 -19 12 11 111 69 231 195 400
655 475 991 162 26 -24 51 -41 55 -37 4 4 9 425 12 934 l5 927 24 58 c37 93
101 159 200 209 114 57 281 50 397 -18 l41 -24 7 31 c3 17 6 55 6 83 0 76 33
164 88 232 104 130 284 175 448 112z"/>
</g>
</svg>
